<svg width="24" height="24" viewBox="0 0 24 24" fill="none" xmlns="http://www.w3.org/2000/svg">
<path d="M13.2686 3.6689C13.5686 3.36894 13.9755 3.20044 14.3998 3.20044C14.8241 3.20044 15.231 3.36894 15.531 3.6689L22.731 10.8689C23.031 11.1689 23.1995 11.5758 23.1995 12.0001C23.1995 12.4244 23.031 12.8313 22.731 13.1313L15.531 20.3313C15.2292 20.6228 14.8251 20.784 14.4056 20.7804C13.986 20.7767 13.5847 20.6085 13.2881 20.3118C12.9914 20.0152 12.8232 19.6139 12.8195 19.1943C12.8159 18.7748 12.9772 18.3707 13.2686 18.0689L17.5998 13.6001H2.3998C1.97546 13.6001 1.56849 13.4315 1.26843 13.1315C0.968376 12.8314 0.799805 12.4244 0.799805 12.0001C0.799805 11.5758 0.968376 11.1688 1.26843 10.8687C1.56849 10.5687 1.97546 10.4001 2.3998 10.4001H17.5998L13.2686 5.9313C12.9687 5.63125 12.8001 5.22436 12.8001 4.8001C12.8001 4.37584 12.9687 3.96894 13.2686 3.6689Z" fill="#3AA6ED"/>
</svg>
