<svg width="34" height="23" viewBox="0 0 34 23" fill="none" xmlns="http://www.w3.org/2000/svg">
<path d="M21.0869 18.924C21.1431 19.2096 21.0026 19.5142 20.6792 19.7141C20.5492 19.8023 20.3947 19.8723 20.2246 19.9201C20.0546 19.9679 19.8723 19.9925 19.6881 19.9925C19.504 19.9925 19.3217 19.9679 19.1517 19.9201C18.9816 19.8723 18.8271 19.8023 18.6971 19.7141L13.0598 15.8969C12.9066 15.7954 12.79 15.6712 12.7193 15.5342C12.6486 15.3971 12.6256 15.2509 12.6521 15.1068V10.233L5.91836 4.39781C5.69007 4.19937 5.58706 3.9478 5.63184 3.69809C5.67662 3.44838 5.86555 3.22082 6.15734 3.06513C6.42444 2.93187 6.71966 2.85571 7.02894 2.85571H26.7101C27.0194 2.85571 27.3146 2.93187 27.5817 3.06513C27.8735 3.22082 28.0624 3.44838 28.1072 3.69809C28.152 3.9478 28.049 4.19937 27.8207 4.39781L21.0869 10.233V18.924ZM9.89676 4.75954L15.4637 9.57622V14.8308L18.2753 16.7346V9.5667L23.8423 4.75954H9.89676Z" fill="black"/>
</svg>
