<svg width="28" height="29" viewBox="0 0 28 29" fill="none" xmlns="http://www.w3.org/2000/svg">
<path d="M9.10016 2.8335H18.9002C22.6335 2.8335 25.6668 5.86683 25.6668 9.60016V19.4002C25.6668 21.1948 24.9539 22.9159 23.6849 24.1849C22.4159 25.4539 20.6948 26.1668 18.9002 26.1668H9.10016C5.36683 26.1668 2.3335 23.1335 2.3335 19.4002V9.60016C2.3335 7.80553 3.04641 6.0844 4.31541 4.81541C5.5844 3.54641 7.30553 2.8335 9.10016 2.8335ZM8.86683 5.16683C7.75292 5.16683 6.68463 5.60933 5.89698 6.39698C5.10933 7.18463 4.66683 8.25292 4.66683 9.36683V19.6335C4.66683 21.9552 6.54516 23.8335 8.86683 23.8335H19.1335C20.2474 23.8335 21.3157 23.391 22.1033 22.6033C22.891 21.8157 23.3335 20.7474 23.3335 19.6335V9.36683C23.3335 7.04516 21.4552 5.16683 19.1335 5.16683H8.86683ZM20.1252 6.91683C20.5119 6.91683 20.8829 7.07047 21.1564 7.34397C21.4299 7.61746 21.5835 7.98839 21.5835 8.37516C21.5835 8.76194 21.4299 9.13287 21.1564 9.40636C20.8829 9.67985 20.5119 9.8335 20.1252 9.8335C19.7384 9.8335 19.3675 9.67985 19.094 9.40636C18.8205 9.13287 18.6668 8.76194 18.6668 8.37516C18.6668 7.98839 18.8205 7.61746 19.094 7.34397C19.3675 7.07047 19.7384 6.91683 20.1252 6.91683ZM14.0002 8.66683C15.5473 8.66683 17.031 9.28141 18.125 10.3754C19.2189 11.4693 19.8335 12.9531 19.8335 14.5002C19.8335 16.0473 19.2189 17.531 18.125 18.625C17.031 19.7189 15.5473 20.3335 14.0002 20.3335C12.4531 20.3335 10.9693 19.7189 9.87537 18.625C8.78141 17.531 8.16683 16.0473 8.16683 14.5002C8.16683 12.9531 8.78141 11.4693 9.87537 10.3754C10.9693 9.28141 12.4531 8.66683 14.0002 8.66683ZM14.0002 11.0002C13.0719 11.0002 12.1817 11.3689 11.5253 12.0253C10.8689 12.6817 10.5002 13.5719 10.5002 14.5002C10.5002 15.4284 10.8689 16.3187 11.5253 16.975C12.1817 17.6314 13.0719 18.0002 14.0002 18.0002C14.9284 18.0002 15.8187 17.6314 16.475 16.975C17.1314 16.3187 17.5002 15.4284 17.5002 14.5002C17.5002 13.5719 17.1314 12.6817 16.475 12.0253C15.8187 11.3689 14.9284 11.0002 14.0002 11.0002Z" fill="white"/>
</svg>
